<svg xmlns="http://www.w3.org/2000/svg" xmlns:xlink="http://www.w3.org/1999/xlink" width="48" zoomAndPan="magnify" viewBox="0 0 375 374.999991" height="48" preserveAspectRatio="xMidYMid meet" version="1.0"><defs><clipPath id="dfad0f9d77"><path d="M 22.167969 56 L 352.917969 56 L 352.917969 319.441406 L 22.167969 319.441406 Z M 22.167969 56 " clip-rule="nonzero"/></clipPath></defs><rect x="-37.5" width="48" fill="#ffffff" y="-37.499999" height="449.999989" fill-opacity="1"/><rect x="-37.5" width="450" fill="#ffffff" y="-37.499999" height="449.999989" fill-opacity="1"/><path fill="#C74851" d="M 234.648438 195.566406 C 222.007812 186.09375 205.21875 180.828125 187.507812 180.828125 C 169.800781 180.828125 153.011719 186.027344 140.371094 195.566406 C 134.117188 200.234375 129.179688 205.761719 125.691406 211.878906 C 122.003906 218.328125 120.160156 225.234375 120.160156 232.273438 C 120.160156 260.628906 150.378906 283.71875 187.507812 283.71875 C 224.640625 283.71875 254.859375 260.628906 254.859375 232.273438 C 254.859375 225.167969 253.015625 218.328125 249.328125 211.878906 C 245.839844 205.761719 240.902344 200.234375 234.648438 195.566406 Z M 229.839844 262.601562 C 218.582031 271.085938 203.507812 275.691406 187.507812 275.691406 C 171.511719 275.691406 156.5 271.023438 145.179688 262.601562 C 134.25 254.378906 128.191406 243.65625 128.191406 232.273438 C 128.191406 220.957031 134.25 210.167969 145.179688 201.945312 C 156.4375 193.460938 171.511719 188.855469 187.507812 188.855469 C 203.507812 188.855469 218.515625 193.527344 229.839844 201.945312 C 240.769531 210.167969 246.824219 220.894531 246.824219 232.273438 C 246.824219 243.65625 240.769531 254.378906 229.839844 262.601562 Z M 229.839844 262.601562 " fill-opacity="1" fill-rule="nonzero"/><path fill="#C74851" d="M 246.695312 143.066406 C 238.925781 143.066406 232.539062 150.632812 232.539062 159.84375 C 232.539062 169.054688 238.859375 176.617188 246.695312 176.617188 C 254.460938 176.617188 260.847656 169.054688 260.847656 159.84375 C 260.847656 150.632812 254.527344 143.066406 246.695312 143.066406 Z M 246.695312 143.066406 " fill-opacity="1" fill-rule="nonzero"/><path fill="#C74851" d="M 142.414062 159.84375 C 142.414062 150.566406 136.09375 143.066406 128.257812 143.066406 C 120.492188 143.066406 114.105469 150.632812 114.105469 159.84375 C 114.105469 169.054688 120.425781 176.617188 128.257812 176.617188 C 136.09375 176.683594 142.414062 169.117188 142.414062 159.84375 Z M 142.414062 159.84375 " fill-opacity="1" fill-rule="nonzero"/><path fill="#C74851" d="M 206.007812 218.457031 C 199.160156 222.601562 197.320312 232.140625 201.859375 239.773438 C 206.46875 247.40625 215.753906 250.300781 222.664062 246.15625 C 229.511719 242.011719 231.421875 232.472656 226.8125 224.839844 C 222.203125 217.207031 212.855469 214.3125 206.007812 218.457031 Z M 206.007812 218.457031 " fill-opacity="1" fill-rule="nonzero"/><path fill="#C74851" d="M 169.011719 218.457031 C 162.164062 214.3125 152.816406 217.207031 148.207031 224.839844 C 143.597656 232.472656 145.507812 242.074219 152.355469 246.15625 C 159.199219 250.300781 168.550781 247.40625 173.15625 239.773438 C 177.699219 232.140625 175.855469 222.539062 169.011719 218.457031 Z M 169.011719 218.457031 " fill-opacity="1" fill-rule="nonzero"/><g clip-path="url(#dfad0f9d77)"><path fill="#C74851" d="M 352.027344 62.742188 C 351.960938 61.03125 350.84375 59.519531 349.199219 59.058594 C 348.671875 58.925781 336.820312 55.441406 317.136719 57.347656 C 305.746094 58.464844 293.964844 61.164062 282.246094 65.441406 C 268.15625 70.503906 254 77.808594 240.175781 87.148438 C 234.976562 85.769531 229.710938 84.714844 224.375 84.058594 C 199.558594 80.832031 175.460938 80.832031 150.640625 84.058594 C 145.308594 84.78125 139.976562 85.769531 134.84375 87.148438 C 121.015625 77.808594 106.929688 70.441406 92.839844 65.375 C 81.054688 61.164062 69.269531 58.464844 57.882812 57.347656 C 38.199219 55.441406 26.347656 58.925781 25.820312 59.058594 C 24.175781 59.585938 23.054688 61.03125 22.988281 62.742188 C 22.988281 63.335938 22.464844 78.136719 26.28125 97.675781 C 28.519531 109.1875 31.8125 119.910156 36.089844 129.648438 C 41.09375 141.027344 47.414062 150.960938 54.917969 159.25 C 52.878906 164.578125 51.234375 170.171875 49.917969 175.828125 L 44.648438 198.984375 C 41.882812 211.222656 41.621094 223.65625 43.792969 235.957031 C 45.898438 247.800781 50.246094 259.046875 56.695312 269.3125 C 63.148438 279.574219 71.3125 288.390625 81.121094 295.496094 C 91.195312 302.863281 102.515625 307.992188 114.761719 310.886719 C 139.253906 316.613281 163.414062 319.441406 187.574219 319.441406 C 211.734375 319.441406 235.898438 316.613281 260.386719 310.886719 C 272.632812 308.058594 283.957031 302.863281 294.027344 295.496094 C 303.773438 288.390625 312 279.574219 318.453125 269.3125 C 324.90625 259.046875 329.25 247.800781 331.355469 235.957031 C 333.53125 223.65625 333.265625 211.222656 330.5 198.984375 L 325.234375 175.828125 C 323.984375 170.171875 322.273438 164.578125 320.230469 159.25 C 327.734375 150.960938 334.054688 140.960938 339.058594 129.648438 C 343.339844 119.910156 346.628906 109.1875 348.867188 97.675781 C 352.621094 78.136719 352.09375 63.402344 352.027344 62.742188 Z M 317.464844 65.375 C 321.414062 64.980469 324.972656 64.78125 328.195312 64.78125 C 305.285156 73.859375 286.589844 88.859375 273.621094 101.6875 C 266.246094 97.015625 258.414062 93.203125 250.117188 90.242188 C 278.03125 72.609375 301.863281 66.953125 317.464844 65.375 Z M 57.554688 65.375 C 73.15625 66.953125 96.988281 72.609375 124.835938 90.242188 C 116.539062 93.203125 108.707031 97.015625 101.332031 101.6875 C 88.363281 88.859375 69.730469 73.859375 46.757812 64.78125 C 50.046875 64.78125 53.667969 64.980469 57.554688 65.375 Z M 34.117188 96.164062 C 31.746094 84.058594 31.152344 73.792969 31.023438 68.003906 C 57.949219 75.175781 79.871094 92.019531 94.617188 106.359375 C 79.015625 117.9375 66.636719 133.199219 58.34375 151.027344 C 43.859375 133.460938 37.210938 111.820312 34.117188 96.164062 Z M 258.476562 303.058594 C 210.75 314.242188 164.335938 314.242188 116.539062 303.058594 C 70.917969 292.402344 42.148438 246.484375 52.484375 200.828125 L 57.75 177.671875 C 59.132812 171.554688 60.976562 165.632812 63.28125 159.910156 C 71.445312 139.515625 85.269531 122.34375 103.109375 110.242188 C 112.851562 103.660156 123.585938 98.660156 135.039062 95.4375 C 135.105469 95.4375 135.105469 95.4375 135.171875 95.371094 C 140.570312 93.859375 146.101562 92.742188 151.695312 92.019531 C 175.789062 88.859375 199.226562 88.859375 223.324219 92.019531 C 228.917969 92.742188 234.449219 93.859375 239.847656 95.371094 C 251.367188 98.597656 262.164062 103.597656 271.910156 110.175781 C 289.816406 122.277344 303.574219 139.449219 311.738281 159.84375 C 314.042969 165.5 315.886719 171.488281 317.269531 177.605469 L 322.535156 200.761719 C 332.871094 246.484375 304.101562 292.402344 258.476562 303.058594 Z M 316.675781 151.027344 C 308.378906 133.199219 296.003906 117.9375 280.402344 106.425781 C 295.148438 92.082031 317.070312 75.242188 344.0625 68.070312 C 343.929688 73.859375 343.339844 84.125 340.96875 96.226562 C 337.808594 111.820312 331.160156 133.460938 316.675781 151.027344 Z M 316.675781 151.027344 " fill-opacity="1" fill-rule="nonzero"/></g></svg>