<svg xmlns="http://www.w3.org/2000/svg" xmlns:xlink="http://www.w3.org/1999/xlink" width="48" zoomAndPan="magnify" viewBox="0 0 375 374.999991" height="48" preserveAspectRatio="xMidYMid meet" version="1.0"><defs><clipPath id="ecbe53d351"><path d="M 13.613281 28.609375 L 361.613281 28.609375 L 361.613281 281 L 13.613281 281 Z M 13.613281 28.609375 " clip-rule="nonzero"/></clipPath></defs><rect x="-37.5" width="48" fill="#ffffff" y="-37.499999" height="449.999989" fill-opacity="1"/><rect x="-37.5" width="450" fill="#ffffff" y="-37.499999" height="449.999989" fill-opacity="1"/><path fill="#C74851" d="M 198.429688 210.75 C 193.960938 209.285156 190.554688 207.957031 188.425781 207.628906 C 186.292969 207.957031 182.886719 209.285156 178.414062 210.75 C 173.546875 212.308594 167.316406 213.859375 159.488281 213.851562 C 158.765625 213.851562 158.03125 213.839844 157.28125 213.8125 C 149.253906 213.46875 141.605469 208.949219 135.738281 202.15625 C 129.898438 195.332031 125.828125 185.960938 125.820312 175.347656 C 125.820312 169.222656 127.199219 162.71875 130.3125 156.226562 C 133.34375 149.875 137.925781 144.929688 143.070312 141.164062 C 148.226562 137.390625 153.957031 134.746094 159.574219 132.835938 C 168.042969 129.96875 176.28125 128.769531 182.035156 128.253906 L 182.449219 128.230469 L 186.878906 127.867188 C 186.914062 127.867188 187.027344 127.867188 187.214844 127.867188 C 187.472656 127.867188 187.878906 127.867188 188.417969 127.878906 C 188.96875 127.867188 189.378906 127.867188 189.632812 127.867188 C 189.808594 127.867188 189.910156 127.867188 189.933594 127.867188 L 193.746094 128.109375 L 194.8125 128.253906 C 198.65625 128.597656 203.617188 129.253906 209.011719 130.5 C 217.023438 132.367188 226.035156 135.507812 233.773438 141.164062 C 238.925781 144.929688 243.503906 149.875 246.539062 156.226562 L 242.128906 158.332031 L 246.539062 156.226562 C 249.644531 162.71875 251.027344 169.222656 251.019531 175.347656 C 251.015625 185.960938 246.945312 195.332031 241.105469 202.15625 C 235.242188 208.949219 227.589844 213.46875 219.558594 213.8125 C 218.8125 213.839844 218.078125 213.851562 217.355469 213.851562 C 217.339844 213.851562 217.324219 213.851562 217.304688 213.851562 C 209.5 213.851562 203.289062 212.304688 198.429688 210.75 Z M 188.941406 197.851562 C 193.332031 198.375 197.007812 200.074219 201.40625 201.445312 C 205.785156 202.839844 210.789062 204.078125 217.359375 204.078125 C 217.960938 204.078125 218.582031 204.070312 219.21875 204.046875 C 223.539062 203.953125 229.261719 201.015625 233.683594 195.800781 C 238.128906 190.609375 241.257812 183.410156 241.253906 175.347656 C 241.25 170.675781 240.222656 165.675781 237.722656 160.441406 C 235.484375 155.769531 232.117188 152.066406 228.003906 149.046875 C 223.894531 146.035156 219.050781 143.753906 214.136719 142.089844 C 204.304688 138.746094 194.25 137.886719 189.648438 137.695312 L 188.570312 137.648438 C 188.5625 137.652344 188.554688 137.652344 188.546875 137.648438 L 188.425781 137.652344 L 188.304688 137.648438 C 188.292969 137.652344 188.289062 137.648438 188.277344 137.648438 L 187.195312 137.699219 C 183.746094 137.84375 177.234375 138.351562 170.039062 140.019531 C 162.839844 141.675781 155 144.523438 148.847656 149.046875 C 144.730469 152.066406 141.363281 155.769531 139.125 160.441406 C 136.625 165.675781 135.597656 170.675781 135.597656 175.351562 C 135.589844 183.414062 138.71875 190.609375 143.164062 195.800781 C 147.585938 201.015625 153.308594 203.953125 157.632812 204.050781 C 158.265625 204.070312 158.882812 204.082031 159.492188 204.078125 C 166.058594 204.078125 171.0625 202.839844 175.441406 201.441406 C 179.84375 200.074219 183.511719 198.375 187.914062 197.851562 L 188.429688 197.796875 Z M 188.941406 197.851562 " fill-opacity="1" fill-rule="nonzero"/><path fill="#C74851" d="M 154.628906 161.75 C 154.628906 161.75 143.882812 171.300781 150.050781 183.039062 C 156.21875 194.777344 171.339844 184.632812 162.386719 174.285156 C 153.433594 163.9375 154.628906 161.75 154.628906 161.75 Z M 154.628906 161.75 " fill-opacity="1" fill-rule="nonzero"/><path fill="#C74851" d="M 220.828125 161.75 C 220.828125 161.75 231.574219 171.300781 225.402344 183.039062 C 219.238281 194.777344 204.113281 184.632812 213.070312 174.285156 C 222.023438 163.9375 220.828125 161.75 220.828125 161.75 Z M 220.828125 161.75 " fill-opacity="1" fill-rule="nonzero"/><path fill="#C74851" d="M 125.976562 140.097656 C 125.976562 140.097656 140.347656 121.34375 173.132812 120.714844 C 173.132812 120.71875 137.660156 106.6875 125.976562 140.097656 Z M 125.976562 140.097656 " fill-opacity="1" fill-rule="nonzero"/><path fill="#C74851" d="M 251.21875 140.097656 C 251.21875 140.097656 237.796875 121.585938 204.0625 120.714844 C 204.0625 120.71875 238.042969 105.46875 251.21875 140.097656 Z M 251.21875 140.097656 " fill-opacity="1" fill-rule="nonzero"/><g clip-path="url(#ecbe53d351)"><path fill="#C74851" d="M 226.953125 277.894531 C 320.839844 254.992188 315.371094 189.984375 315.371094 189.984375 C 316.53125 180.476562 313.292969 171.351562 311.898438 165.324219 C 311.898438 165.324219 310.273438 153.398438 302.628906 138.132812 C 302.628906 138.132812 327.0625 148.246094 340.546875 119.597656 C 354.023438 90.949219 361.609375 36.179688 361.609375 36.179688 C 361.609375 36.179688 350.652344 43.765625 326.222656 43.765625 C 301.785156 43.765625 274.042969 31.28125 250.453125 48.128906 C 250.453125 48.128906 228.171875 29.066406 187.621094 28.609375 C 147.066406 29.066406 121.847656 47.511719 121.847656 47.511719 C 98.253906 30.660156 73.453125 43.765625 49.019531 43.765625 C 24.582031 43.765625 13.632812 36.179688 13.632812 36.179688 C 13.632812 36.179688 21.210938 90.949219 34.695312 119.597656 C 48.175781 148.246094 72.609375 138.132812 72.609375 138.132812 C 63.339844 154.984375 61.65625 171 61.65625 171 C 60.097656 182.480469 59.632812 180.628906 59.863281 195.464844 C 59.863281 195.464844 57.496094 260.71875 157.679688 280.183594 C 157.679688 280.183594 80.96875 258.425781 74.523438 202.074219 C 69.515625 158.257812 99.074219 134.886719 101.65625 102.585938 C 104.242188 70.289062 59.019531 66.410156 55.144531 67.703125 C 55.144531 67.703125 75.816406 70.289062 80.984375 87.085938 C 86.152344 103.878906 86.152344 125.84375 62.898438 125.84375 C 39.640625 125.84375 38.351562 98.710938 34.472656 88.375 C 30.59375 78.039062 22.84375 48.320312 22.84375 48.320312 C 22.84375 48.320312 39.640625 56.078125 62.898438 52.199219 C 86.152344 48.320312 101.65625 49.613281 122.328125 66.410156 C 122.328125 66.410156 142.070312 41.742188 187.574219 40.617188 C 233.074219 41.742188 252.816406 66.410156 252.816406 66.410156 C 273.492188 49.617188 288.992188 48.324219 312.25 52.199219 C 335.507812 56.078125 352.304688 48.320312 352.304688 48.320312 C 352.304688 48.320312 344.554688 78.039062 340.675781 88.375 C 336.800781 98.710938 335.507812 125.84375 312.253906 125.84375 C 288.996094 125.84375 288.996094 103.882812 294.164062 87.085938 C 299.335938 70.289062 320.003906 67.703125 320.003906 67.703125 C 316.128906 66.410156 270.910156 70.289062 273.492188 102.585938 C 276.074219 134.890625 304.621094 158.15625 300.625 202.074219 C 296.226562 250.414062 226.953125 277.894531 226.953125 277.894531 Z M 226.953125 277.894531 " fill-opacity="1" fill-rule="nonzero"/></g><path fill="#C74851" d="M 157.523438 206.699219 C 157.523438 206.699219 181.136719 232.914062 218.257812 207.027344 L 221.679688 207.027344 C 221.679688 207.027344 185.53125 250.988281 153.289062 206.050781 Z M 157.523438 206.699219 " fill-opacity="1" fill-rule="nonzero"/><path fill="#C74851" d="M 84.6875 246.261719 C 84.6875 246.261719 180.007812 346.59375 290.785156 245.546875 L 289.449219 231.804688 C 289.449219 231.804688 196.042969 341.441406 85.976562 233.523438 Z M 84.6875 246.261719 " fill-opacity="1" fill-rule="nonzero"/><path fill="#C74851" d="M 133.164062 250.246094 C 133.164062 250.246094 182.792969 294.558594 244.472656 250.246094 C 244.472656 250.246094 190.59375 279.316406 133.164062 250.246094 Z M 133.164062 250.246094 " fill-opacity="1" fill-rule="nonzero"/></svg>